# Blender v2.91.2 OBJ File: 'particles_hex.blend'
# www.blender.org
o Circle
v 0.250000 0.433013 0.000000
v -0.250000 0.433013 0.000000
v -0.500000 -0.000000 -0.000000
v -0.250000 -0.433013 -0.000000
v 0.250000 -0.433013 -0.000000
v 0.500000 -0.000000 0.000000
v 0.000000 0.000000 0.000000
vt 0.750077 0.933363
vt 0.250077 0.933363
vt 0.500077 0.499769
vt 1.000077 0.499769
vt 0.750077 0.066176
vt 0.250077 0.066176
vt 0.000000 0.499769
vn -0.0000 -0.0000 1.0000
s off
f 1/1/1 2/2/1 7/3/1
f 6/4/1 1/1/1 7/3/1
f 5/5/1 6/4/1 7/3/1
f 5/5/1 7/3/1 4/6/1
f 3/7/1 4/6/1 7/3/1
f 2/2/1 3/7/1 7/3/1
