# Blender v2.91.2 OBJ File: 'stone_small_001.blend'
# www.blender.org
o Stone_lit_001_Mesh.008
v -0.130003 0.042211 0.141003
v 0.130003 0.125749 0.141003
v -0.130003 0.042211 -0.141003
v 0.130003 0.125749 -0.141003
v 0.000000 0.166304 0.000000
v 0.000000 -0.008483 0.253806
v 0.234006 -0.008483 0.000000
v 0.000000 -0.008483 -0.253806
v -0.265642 -0.033345 0.000000
v 0.000000 0.143491 0.190354
v 0.175505 0.143491 0.000000
v 0.000000 0.143491 -0.190354
v -0.175505 0.059954 0.000000
v 0.175505 -0.008483 0.190354
v -0.175505 -0.008483 0.190354
v 0.175505 -0.008483 -0.190354
v -0.207141 -0.033345 -0.190354
vt 0.984375 0.421875
vt 0.984375 0.421875
vt 0.984375 0.421875
vt 0.984375 0.421875
vt 0.984375 0.421875
vt 0.984375 0.421875
vt 0.984375 0.421875
vt 0.984375 0.421875
vt 0.984375 0.421875
vt 0.984375 0.421875
vt 0.984375 0.421875
vt 0.984375 0.421875
vt 0.984375 0.421875
vt 0.984375 0.421875
vt 0.984375 0.421875
vt 0.984375 0.421875
vt 0.984375 0.421875
vn -0.6335 0.7683 0.0921
vn 0.2019 0.9616 0.1861
vn 0.1778 0.9771 -0.1171
vn -0.6545 0.6946 -0.2986
vn 0.3737 0.3574 0.8559
vn -0.6450 0.7449 0.1705
vn 0.8818 0.3395 -0.3273
vn 0.8522 0.4089 0.3265
vn -0.5453 0.3230 -0.7736
vn 0.3712 0.4287 -0.8237
vn -0.6851 0.6619 0.3044
vn -0.5733 0.7694 -0.2818
vn -0.4997 0.8247 0.2650
vn 0.1280 0.9847 0.1180
vn 0.1271 0.9782 -0.1641
vn -0.5155 0.8508 -0.1020
vn 0.0419 -0.9990 0.0154
vn 0.3088 0.4187 0.8540
vn -0.3165 0.3655 0.8754
vn 0.8775 0.3966 -0.2697
vn 0.8971 0.3453 0.2757
vn -0.2828 0.7100 -0.6450
vn 0.3165 0.3655 -0.8754
vn -0.6259 0.7544 0.1978
vn -0.7022 0.6784 -0.2158
s off
f 1/1/1 10/2/1 5/3/1
f 10/2/2 2/4/2 11/5/2
f 4/6/3 12/7/3 5/3/3
f 12/7/4 3/8/4 13/9/4
f 2/4/5 10/2/5 6/10/5
f 10/2/6 1/1/6 15/11/6
f 4/6/7 11/5/7 7/12/7
f 11/5/8 2/4/8 14/13/8
f 3/8/9 12/7/9 8/14/9
f 12/7/10 4/6/10 16/15/10
f 1/1/11 13/9/11 9/16/11
f 13/9/12 3/8/12 17/17/12
f 5/3/13 13/9/13 1/1/13
f 11/5/14 5/3/14 10/2/14
f 5/3/15 11/5/15 4/6/15
f 13/9/16 5/3/16 12/7/16
f 6/10/17 15/11/17 9/16/17 17/17/17 8/14/17 16/15/17 7/12/17 14/13/17
f 6/10/18 14/13/18 2/4/18
f 15/11/19 6/10/19 10/2/19
f 7/12/20 16/15/20 4/6/20
f 14/13/21 7/12/21 11/5/21
f 8/14/22 17/17/22 3/8/22
f 16/15/23 8/14/23 12/7/23
f 9/16/24 15/11/24 1/1/24
f 17/17/25 9/16/25 13/9/25
