# Blender v2.91.2 OBJ File: 'grass_004.blend'
# www.blender.org
o Grass_004_Mesh
v -0.024059 0.000000 0.000778
v -0.012902 0.000000 -0.040859
v -0.075374 0.000000 -0.012972
v -0.064217 0.000000 -0.054608
v -0.069531 0.467205 0.067853
v -0.064774 0.309691 0.007172
v -0.058817 0.311705 -0.015059
v -0.086216 0.311705 -0.022401
v -0.092173 0.309691 -0.000169
v -0.003037 0.168945 0.033190
v 0.005291 0.171761 0.002109
v -0.033014 0.171761 -0.008155
v -0.041342 0.168945 0.022926
v 0.052359 0.000000 -0.010077
v 0.053566 0.000000 -0.040674
v 0.014059 0.000000 -0.013479
v 0.015266 0.000000 -0.044076
v 0.092173 0.313364 -0.067853
v 0.085340 0.229125 -0.038560
v 0.085985 0.224549 -0.054897
v 0.065535 0.228155 -0.056714
v 0.064890 0.232730 -0.040377
v 0.039495 0.120596 -0.026782
v 0.040423 0.114005 -0.050314
v 0.010966 0.119199 -0.052931
v 0.010038 0.125790 -0.029399
vt 0.359375 0.421875
vt 0.359375 0.421875
vt 0.359375 0.421875
vt 0.359375 0.421875
vt 0.359375 0.421875
vt 0.359375 0.421875
vt 0.359375 0.421875
vt 0.359375 0.421875
vt 0.359375 0.421875
vt 0.359375 0.390625
vt 0.359375 0.421875
vt 0.359375 0.421875
vt 0.359375 0.421875
vt 0.359375 0.421875
vt 0.359375 0.421875
vt 0.359375 0.421875
vt 0.359375 0.421875
vt 0.359375 0.421875
vt 0.359375 0.421875
vt 0.359375 0.421875
vt 0.359375 0.421875
vt 0.359375 0.421875
vt 0.359375 0.390625
vt 0.359375 0.421875
vt 0.359375 0.421875
vt 0.359375 0.421875
vn 0.9523 -0.1674 0.2552
vn 0.9513 0.1246 0.2821
vn 0.2531 0.2095 -0.9445
vn 0.2568 0.1182 -0.9592
vn -0.9381 0.2384 -0.2514
vn -0.9573 -0.0601 -0.2828
vn -0.2558 -0.1513 0.9548
vn -0.2583 -0.0421 0.9652
vn 0.9652 -0.0681 0.2525
vn 0.2284 0.4703 -0.8525
vn -0.9438 0.2357 -0.2316
vn -0.2419 -0.3552 0.9030
vn 0.8624 0.4282 0.2699
vn 0.8718 0.4213 0.2500
vn 0.2588 0.0001 -0.9659
vn 0.2587 0.0117 -0.9659
vn -0.8901 -0.3660 -0.2716
vn -0.9009 -0.3406 -0.2690
vn -0.2583 0.0649 0.9639
vn -0.2496 0.0640 0.9662
vn 0.9942 0.1073 0.0092
vn 0.0882 -0.0738 -0.9934
vn -0.9985 -0.0389 -0.0394
vn -0.9798 0.1760 -0.0952
vn -0.0878 0.1223 0.9886
vn 0.9965 -0.0612 0.0565
vn 0.0615 -0.1483 -0.9870
vn -0.9522 0.2824 -0.1167
vn -0.0256 0.3302 0.9436
vn 0.9174 -0.3723 0.1405
vn 0.0756 -0.0724 -0.9945
vn -0.8851 0.4378 -0.1576
vn -0.8867 0.4412 -0.1382
vn -0.0641 0.1344 0.9888
vn 0.9568 -0.1618 0.2417
vn 0.9527 -0.1844 0.2417
vn 0.2433 0.2156 -0.9457
vn -0.9431 0.2391 -0.2311
vn -0.9501 0.2355 -0.2044
vn -0.2558 -0.1602 0.9533
vn 0.8596 0.4439 0.2533
vn 0.2614 0.0113 -0.9652
vn -0.8996 -0.3401 -0.2741
vn -0.2586 0.0739 0.9632
vn 0.9923 0.1177 0.0391
vn 0.0758 -0.0711 -0.9946
vn -0.9989 -0.0357 -0.0294
vn -0.9982 -0.0548 -0.0253
vn -0.0650 0.1301 0.9894
vn 0.0000 -1.0000 0.0000
s off
f 1/1/1 2/2/1 10/3/2
f 2/2/3 4/4/3 11/5/4
f 4/4/5 3/6/5 12/7/6
f 3/6/7 1/1/7 13/8/8
f 7/9/9 5/10/9 6/11/9
f 8/12/10 5/10/10 7/9/10
f 9/13/11 5/10/11 8/12/11
f 6/11/12 5/10/12 9/13/12
f 11/5/13 7/9/13 10/3/14
f 12/7/15 8/12/15 11/5/16
f 13/8/17 9/13/17 12/7/18
f 10/3/19 6/11/19 13/8/20
f 14/14/21 24/15/21 23/16/21
f 15/17/22 17/18/22 24/15/22
f 17/18/23 16/19/23 25/20/24
f 16/19/25 14/14/25 26/21/25
f 20/22/26 18/23/26 19/24/26
f 21/25/27 18/23/27 20/22/27
f 22/26/28 18/23/28 21/25/28
f 19/24/29 18/23/29 22/26/29
f 24/15/30 20/22/30 23/16/30
f 25/20/31 21/25/31 24/15/31
f 26/21/32 21/25/32 25/20/33
f 23/16/34 19/24/34 26/21/34
f 2/2/35 11/5/35 10/3/36
f 4/4/3 12/7/3 11/5/37
f 3/6/38 13/8/38 12/7/39
f 1/1/7 10/3/7 13/8/40
f 7/9/13 6/11/13 10/3/41
f 8/12/15 7/9/15 11/5/42
f 9/13/17 8/12/17 12/7/43
f 6/11/19 9/13/19 13/8/44
f 14/14/45 15/17/45 24/15/45
f 17/18/46 25/20/46 24/15/46
f 16/19/47 26/21/47 25/20/48
f 14/14/49 23/16/49 26/21/49
f 20/22/30 19/24/30 23/16/30
f 21/25/31 20/22/31 24/15/31
f 26/21/32 22/26/32 21/25/32
f 19/24/34 22/26/34 26/21/34
f 1/1/50 3/6/50 4/4/50 2/2/50
f 15/17/50 14/14/50 16/19/50 17/18/50
