# Blender v2.91.2 OBJ File: 'grass_002.blend'
# www.blender.org
o Grass_002_Mesh
v -0.032728 -0.006892 0.013641
v 0.001021 -0.006892 0.025738
v -0.017875 -0.006892 -0.027875
v 0.015874 -0.006892 -0.015778
v -0.030007 0.393575 -0.013095
v 0.006778 0.256712 -0.026769
v 0.024797 0.255573 -0.020310
v 0.032728 0.255330 -0.042476
v 0.014708 0.256469 -0.048935
v -0.008515 0.140363 -0.015950
v 0.016677 0.138770 -0.006920
v 0.027764 0.138431 -0.037910
v 0.002571 0.140023 -0.046940
vt 0.359375 0.390625
vt 0.359375 0.390625
vt 0.359375 0.390625
vt 0.359375 0.390625
vt 0.359375 0.390625
vt 0.359375 0.390625
vt 0.359375 0.390625
vt 0.359375 0.390625
vt 0.359375 0.390625
vt 0.359375 0.359375
vt 0.359375 0.390625
vt 0.359375 0.390625
vt 0.359375 0.390625
vn -0.3278 0.2376 0.9144
vn -0.3350 0.1789 0.9251
vn 0.9413 -0.0257 0.3367
vn 0.3326 -0.1685 -0.9279
vn 0.3384 -0.1077 -0.9348
vn -0.9380 0.0870 -0.3356
vn -0.3419 -0.1840 0.9215
vn 0.8879 0.3362 0.3140
vn 0.3363 0.3393 -0.8785
vn -0.9203 -0.2147 -0.3269
vn -0.3273 0.1300 0.9359
vn -0.3260 0.1352 0.9357
vn 0.9411 -0.0268 0.3370
vn 0.3341 -0.0509 -0.9412
vn 0.3294 -0.0522 -0.9427
vn -0.9373 0.0919 -0.3363
vn -0.3141 0.2397 0.9186
vn -0.3091 0.2396 0.9203
vn 0.9412 -0.0257 0.3370
vn 0.3234 -0.1659 -0.9316
vn 0.3234 -0.1710 -0.9307
vn -0.9377 0.0866 -0.3364
vn -0.3269 0.1353 0.9353
vn 0.3318 -0.0465 -0.9422
vn 0.0000 -1.0000 -0.0000
s off
f 1/1/1 2/2/1 10/3/2
f 2/2/3 4/4/3 11/5/3
f 4/4/4 3/6/4 12/7/5
f 3/6/6 1/1/6 13/8/6
f 7/9/7 5/10/7 6/11/7
f 8/12/8 5/10/8 7/9/8
f 9/13/9 5/10/9 8/12/9
f 6/11/10 5/10/10 9/13/10
f 11/5/11 7/9/11 10/3/12
f 12/7/13 8/12/13 11/5/13
f 13/8/14 9/13/14 12/7/15
f 10/3/16 6/11/16 13/8/16
f 2/2/17 11/5/17 10/3/18
f 4/4/19 12/7/19 11/5/19
f 3/6/20 13/8/20 12/7/21
f 1/1/22 10/3/22 13/8/22
f 7/9/11 6/11/11 10/3/23
f 8/12/13 7/9/13 11/5/13
f 9/13/14 8/12/14 12/7/24
f 6/11/16 9/13/16 13/8/16
f 1/1/25 3/6/25 4/4/25 2/2/25
